<?xml version="1.0" encoding="UTF-8"?>
<svg id="Layer_2" data-name="Layer 2" xmlns="http://www.w3.org/2000/svg" viewBox="0 0 1237.79 463.66">
  <defs>
    <style>
      .cls-1 {
        fill: #5653f3;
      }

      .cls-2 {
        fill: #fff;
      }

      .cls-3 {
        fill: #001029;
      }
    </style>
  </defs>
  <g id="Layer_1-2" data-name="Layer 1">
    <g>
      <rect class="cls-2" width="1237.79" height="463.66"/>
      <g>
        <g>
          <path class="cls-1" d="M226.02,170.97c4.38,2.57,8.54-7.59,10.85-10.3,7.34-8.6,16.45-16.15,26.31-21.69,3.36-1.89,14.11-7.66,17.27-7.79,4.88-.2,11.52,10.03,10.24,14.25-.66,2.17-19.14,10.99-23.17,13.88-14.2,10.15-27.18,28.51-28.7,46.3-1.4,16.43-1.61,49.84-.03,66.1.64,6.58,5.32,8.46,10.56,4.44,18.61-18.32,39.78-32.62,53.92-55.08,3.32-5.27,5.47-17.07,13.48-12.35,1.5.88,5.25,4.81,5.7,6.41,1.31,4.68-3.26,9.92-4.6,14.02.77.7,17.32-3.7,20.51-3.98,7.69-.66,39.49.87,45.03,4.93,3.12,2.29,2.45,16.74-1.24,17.85-4.53,1.36-20.57-2.52-26.76-2.84-23.24-1.17-44.74,4.57-63.01,19.07-6.67,5.3-31.34,28.39-34.03,34.97-14.28,35,42.04,50.92,66.95,52.04,22.08,1,63.47-8.65,81.91,5.08,3.78,2.81,1.88,7.37-1.91,7.9-3.39.47-19.48-4.83-25.9-5.06-4.88-.18-13.03.49-17.92,1.16-1.43.2-14.68,1.83-11,4.93,6.15,2.13,30.01,19.95,30.04,25.45.01,2.09-2.8,4.79-5.11,4.55-1.1-.11-13.8-11.92-17.02-14.08-20.51-13.71-37.99-14.13-60.73-19.27-3.57-.81-21.18-7.3-22.8-5.7.15,12.44,13.86,22.64,24.33,27.17,15.49,6.71,29.82,5.4,41.65,20.35,1.93,2.43,8.05,10.64,4.04,12.98-6.04,3.53-7.66-3.78-10.98-7.05-9.42-9.28-23.03-11.94-35.48-14.39l-1.39,2.22c1.21,4.26,3.4,8.22,4.55,12.49s5.66,21.97,3.37,24.81c-1.47,1.83-4.96,2.11-6.63.43-1.04-1.05-5.27-20.21-6.72-24.27-2.44-6.83-6.29-14.66-10.34-20.66-4.78-7.09-22.6-27.73-28.89-33.11-9.14-7.82-14.46-3.42-15.51,7.53-2.38,24.75,19,29.49,24.28,49.69,2.79,10.65,1.93,21.65-3.28,31.31-11.91,2.12-6.51-4.73-6.03-11.02,1.55-20.15-9.21-29.6-23.49-41.53-11.17,8.87-24.24,19.94-24.53,35.59-.1,5.26,5.78,17.98-2.3,18.14-4.17.08-5.25-4.2-6.19-7.67-3.57-13.15-1.64-25.97,5.7-37.34,5.82-9,15.21-13.76,17.37-25.63,1.86-10.22.51-32.45-14.45-19.45-5.79,5.03-17.42,18.96-22.61,25.39-12.33,15.29-19.72,32.69-22.48,52.27-13.61,8.17-7.03-14.38-5.33-21.08,1.59-6.31,4.77-11.87,5.32-18.17-10.2,2.21-21.79,3.93-30.69,9.8-3.3,2.17-11.17,11.8-11.98,12.07-1.99.66-4.35-.35-6.23-.98.52-8.83,8.75-16.93,15.99-21.32,13.24-8.04,28.7-7.69,41.4-17.6,3.24-2.53,17.82-16.74,12.58-20.55-1.71-1.25-21.07,5.26-25.02,6.11-27.6,5.95-42.11,5.71-65.51,24.49-2.19,1.76-5.15,5.96-6.99,7.04-4.32,2.53-8.49-1.65-5.59-6.63.94-1.6,10.55-10.77,12.57-12.42,4.49-3.67,10.72-7.23,15.88-9.99,2.88-2.08-3.7-3.68-5.01-3.93-10.37-1.96-24.28-2.65-34.64-.85-4.31.75-16.01,6.26-18.26,1.75-2.94-5.89,4.02-7.14,8.26-8.75,24.61-9.35,50.53-1.04,75.79-2.21,30.1-1.4,93.97-24.76,58.48-62.57-26.13-27.84-49.24-45.54-89.57-43.52-5.84.29-22.63,4.09-26.75,2.84s-3.36-15.74-1.48-17.57c4.24-4.13,40.2-5.82,47.25-5.21,6.06.53,12.24,3.41,18.51,2.98.53-.48-3.6-8.61-3.71-10.65-.29-5.32,5.58-10.83,11.01-9.16,2.17.67,9.78,16.29,12.27,19.75,13.27,18.43,34.32,32.59,50.47,48.52,13.69,5.64,8.88-9.69,8.91-16.9.22-47.97,9.4-77.71-37.65-106.36-9.29-5.66-21.34-5.62-9.3-18.69,4.96-5.38,7.81-3.34,13.67-.68,13.98,6.32,28.36,17.13,37.74,29.26,1.1,1.43,4.36,7.5,4.75,7.73Z"/>
          <path class="cls-1" d="M387.86,313.14c-1.12-1.07,8.6-17.84,9.85-20.64C460.68,152,323.56,9.66,179.64,48.43,65.6,79.15,6.08,208.63,68.85,312.14c-5.5.16-12.94,2.74-17.95-.54s-16.28-34.62-18.32-41.68C-8.18,128.58,123.21-1.97,264.06,23.44c131.11,23.65,209.66,168.03,142.31,287.72l-18.51,1.98Z"/>
          <path class="cls-1" d="M224.61,81.41c38.72-4.79,42.08,55.37,3.64,55.62-35.23.23-37.52-51.43-3.64-55.62Z"/>
          <path class="cls-1" d="M335.63,161.38c26.37-2.78,37.95,35.59,12.46,46.51-35.8,15.35-49.05-42.66-12.46-46.51Z"/>
          <path class="cls-1" d="M116.66,161.4c28.4-2.53,36.59,39.21,9.42,47.47-34.92,10.6-45.09-44.28-9.42-47.47Z"/>
        </g>
        <g>
          <path class="cls-3" d="M554.85,246.15v116.5l-1.5,1.5h-30l-1.5-1.5V127.65c0-.75,2.43-2.26,3.53-2.47,2.6-.5,26.28-.25,27.49.46.78.46,1.19,1.62,1.54,2.46,3.04,8.95-3.12,102.26,1.97,103.05,3.47.54,8.35-7.37,10.45-9.53,30.77-31.54,62.38-62.31,92.67-94.33,2.22-1.54,4.16-1.94,6.81-2.19,8.03-.77,27.25-.93,35.1,0,2.88.34,4.2.92,3.03,4.09l-105.63,106.4-1,3,111.93,123.2-1.38,2.35h-43c-1.94-1.04-3.48-2.44-5.02-3.98-33.52-33.49-63.65-74.45-96.96-109.04-2.47-2.57-4.53-5.74-8.51-4.99Z"/>
          <path class="cls-3" d="M1069.09,204.39c1.86-1.79,25.63-1.83,28.81-.79.94.3,1.82.77,2.46,1.54l.45,95.55c4.29,54.15,79.89,51.28,84.07-2l.4-93.6,2.06-.94c5.5,1.59,26.63-3.89,29.01,1l.54,145.55c-1.62,34.73-12.07,66.36-46.36,80.64-29.54,12.3-69.63,8.63-94.61-11.82l16.35-20.42c4.54-3.32,12.1,3.3,16.89,5.25,35.01,14.25,71.07-2.63,74.55-41.8.19-2.09,1.13-8.58-2.22-8.26-33.26,26.13-90.03,15.87-106.41-24.86-11.01-27.39-6.11-85.36-6.19-116.81,0-2.46-1.59-6.5.19-8.21Z"/>
          <path class="cls-3" d="M801.85,364.15v-97.5c0-6.24,6.16-22.78,9.29-28.71,26.8-50.75,111.93-51.52,138.25.17,2.88,5.65,8.46,22.66,8.46,28.54v96l-1.5,1.5h-29l-1.5-1.5v-91c0-8.96-7.89-25.3-14.47-31.53-26.41-24.99-77.53-6.61-77.53,30.53v92l-1.5,1.5h-30.5Z"/>
          <path class="cls-3" d="M998.85,127.65c.09-.33,1.55-1.77,2.02-1.98,1.75-.82,23.71-1.01,26.46-.49,1.1.21,3.53,1.73,3.53,2.47v235l-1.5,1.5h-29l-1.5-1.5V127.65Z"/>
          <path class="cls-3" d="M763.85,364.15h-30.5l-1.5-1.5v-156c0-.13,1.07-2.22,1.21-2.31,9.64-1.12,22.07-3.24,30.79,1.31v158.5Z"/>
          <path class="cls-3" d="M745.64,132.38c25.22-2.73,33.47,32.45,10.94,40.99-31.51,11.93-42.11-37.61-10.94-40.99Z"/>
        </g>
      </g>
    </g>
  </g>
</svg>
